<?xml version="1.0" encoding="UTF-8" standalone="no"?>
<!DOCTYPE svg PUBLIC "-//W3C//DTD SVG 1.1//EN"
 "http://www.w3.org/Graphics/SVG/1.1/DTD/svg11.dtd">
<!-- Generated by graphviz version 2.43.0 (0)
 -->
<!-- Title: %3 Pages: 1 -->
<svg width="864pt" height="1082pt"
 viewBox="0.00 0.00 864.00 1082.00" xmlns="http://www.w3.org/2000/svg" xmlns:xlink="http://www.w3.org/1999/xlink">
<g id="graph0" class="graph" transform="scale(1 1) rotate(0) translate(4 1078)">
<title>%3</title>
<polygon fill="white" stroke="transparent" points="-4,4 -4,-1078 860,-1078 860,4 -4,4"/>
<text text-anchor="start" x="181.5" y="-11.8" font-family="Arial" font-size="34.00">Stratus &#45; Internals &#45; Components</text>
<g id="clust1" class="cluster">
<title>cluster_2</title>
<polygon fill="none" stroke="#444444" points="8,-64 8,-1066 848,-1066 848,-64 8,-64"/>
<text text-anchor="start" x="381" y="-92.8" font-family="Arial" font-size="24.00" fill="#444444">Internals</text>
<text text-anchor="start" x="381.5" y="-72.8" font-family="Arial" font-size="19.00" fill="#444444">[Container]</text>
</g>
<!-- 10 -->
<g id="10" class="node">
<title>10</title>
<polygon fill="#dddddd" stroke="#9a9a9a" points="389,-261 33,-261 33,-164 389,-164 389,-261"/>
<text text-anchor="start" x="62" y="-212.8" font-family="Arial" font-size="34.00" fill="#000000">Storage: Temporary</text>
<text text-anchor="start" x="106.5" y="-190.8" font-family="Arial" font-size="19.00" fill="#000000">[Component: In&#45;Memory]</text>
</g>
<!-- 3 -->
<g id="3" class="node">
<title>3</title>
<polygon fill="#dddddd" stroke="#9a9a9a" points="326.5,-1041 33.5,-1041 33.5,-944 326.5,-944 326.5,-1041"/>
<text text-anchor="start" x="62.5" y="-992.8" font-family="Arial" font-size="34.00" fill="#000000">Importer Online</text>
<text text-anchor="start" x="125.5" y="-970.8" font-family="Arial" font-size="19.00" fill="#000000">[Component]</text>
</g>
<!-- 6 -->
<g id="6" class="node">
<title>6</title>
<polygon fill="#dddddd" stroke="#9a9a9a" points="319,-846 33,-846 33,-749 319,-749 319,-846"/>
<text text-anchor="start" x="62" y="-797.8" font-family="Arial" font-size="34.00" fill="#000000">Core: Executor</text>
<text text-anchor="start" x="121.5" y="-775.8" font-family="Arial" font-size="19.00" fill="#000000">[Component]</text>
</g>
<!-- 3&#45;&gt;6 -->
<g id="11" class="edge">
<title>3&#45;&gt;6</title>
<path fill="none" stroke="#707070" stroke-dasharray="5,2" d="M179.01,-943.79C178.46,-917.35 177.78,-884.27 177.2,-856.36"/>
<polygon fill="#707070" stroke="#707070" points="180.7,-856.25 176.99,-846.33 173.7,-856.4 180.7,-856.25"/>
<text text-anchor="start" x="179" y="-888.8" font-family="Arial" font-size="24.00" fill="#707070">execute</text>
</g>
<!-- 4 -->
<g id="4" class="node">
<title>4</title>
<polygon fill="#dddddd" stroke="#9a9a9a" points="693,-1041 443,-1041 443,-944 693,-944 693,-1041"/>
<text text-anchor="start" x="472" y="-992.8" font-family="Arial" font-size="34.00" fill="#000000">RPC: Server</text>
<text text-anchor="start" x="513.5" y="-970.8" font-family="Arial" font-size="19.00" fill="#000000">[Component]</text>
</g>
<!-- 5 -->
<g id="5" class="node">
<title>5</title>
<polygon fill="#dddddd" stroke="#9a9a9a" points="745,-846 391,-846 391,-749 745,-749 745,-846"/>
<text text-anchor="start" x="420" y="-797.8" font-family="Arial" font-size="34.00" fill="#000000">RPC: Subscriptions</text>
<text text-anchor="start" x="513.5" y="-775.8" font-family="Arial" font-size="19.00" fill="#000000">[Component]</text>
</g>
<!-- 4&#45;&gt;5 -->
<g id="12" class="edge">
<title>4&#45;&gt;5</title>
<path fill="none" stroke="#707070" stroke-dasharray="5,2" d="M568,-943.79C568,-917.35 568,-884.27 568,-856.36"/>
<polygon fill="#707070" stroke="#707070" points="571.5,-856.33 568,-846.33 564.5,-856.33 571.5,-856.33"/>
<text text-anchor="start" x="568" y="-888.8" font-family="Arial" font-size="24.00" fill="#707070">manage</text>
</g>
<!-- 4&#45;&gt;6 -->
<g id="14" class="edge">
<title>4&#45;&gt;6</title>
<path fill="none" stroke="#707070" stroke-dasharray="5,2" d="M471.35,-943.92C413.78,-915.57 340.65,-879.57 281.57,-850.48"/>
<polygon fill="#707070" stroke="#707070" points="283.1,-847.33 272.58,-846.05 280.01,-853.61 283.1,-847.33"/>
<text text-anchor="start" x="396" y="-888.8" font-family="Arial" font-size="24.00" fill="#707070">execute</text>
</g>
<!-- 8 -->
<g id="8" class="node">
<title>8</title>
<polygon fill="#dddddd" stroke="#9a9a9a" points="569.5,-456 392.5,-456 392.5,-359 569.5,-359 569.5,-456"/>
<text text-anchor="start" x="421.5" y="-407.8" font-family="Arial" font-size="34.00" fill="#000000">Storage</text>
<text text-anchor="start" x="426.5" y="-385.8" font-family="Arial" font-size="19.00" fill="#000000">[Component]</text>
</g>
<!-- 4&#45;&gt;8 -->
<g id="13" class="edge">
<title>4&#45;&gt;8</title>
<path fill="none" stroke="#707070" stroke-dasharray="5,2" d="M678.02,-943.91C717.94,-920.59 758.68,-888.28 781,-846 801.13,-807.88 794.62,-789.9 781,-749 740.49,-627.29 630.15,-522.66 555.2,-462.62"/>
<polygon fill="#707070" stroke="#707070" points="557.17,-459.71 547.16,-456.24 552.81,-465.19 557.17,-459.71"/>
<text text-anchor="start" x="765" y="-693.8" font-family="Arial" font-size="24.00" fill="#707070">read</text>
</g>
<!-- 7 -->
<g id="7" class="node">
<title>7</title>
<polygon fill="#dddddd" stroke="#9a9a9a" points="599,-651 363,-651 363,-554 599,-554 599,-651"/>
<text text-anchor="start" x="392" y="-602.8" font-family="Arial" font-size="34.00" fill="#000000">Core: Miner</text>
<text text-anchor="start" x="426.5" y="-580.8" font-family="Arial" font-size="19.00" fill="#000000">[Component]</text>
</g>
<!-- 5&#45;&gt;7 -->
<g id="15" class="edge">
<title>5&#45;&gt;7</title>
<path fill="none" stroke="#707070" stroke-dasharray="5,2" d="M546.49,-748.79C534.47,-722.12 519.4,-688.69 506.75,-660.62"/>
<polygon fill="#707070" stroke="#707070" points="509.86,-659.01 502.56,-651.33 503.48,-661.88 509.86,-659.01"/>
<text text-anchor="start" x="529" y="-693.8" font-family="Arial" font-size="24.00" fill="#707070">subscribe</text>
</g>
<!-- 6&#45;&gt;7 -->
<g id="17" class="edge">
<title>6&#45;&gt;7</title>
<path fill="none" stroke="#707070" stroke-dasharray="5,2" d="M251.39,-748.79C295.56,-720.84 351.43,-685.49 397,-656.65"/>
<polygon fill="#707070" stroke="#707070" points="399.1,-659.47 405.68,-651.16 395.36,-653.55 399.1,-659.47"/>
<text text-anchor="start" x="347" y="-693.8" font-family="Arial" font-size="24.00" fill="#707070">writes</text>
</g>
<!-- 6&#45;&gt;8 -->
<g id="16" class="edge">
<title>6&#45;&gt;8</title>
<path fill="none" stroke="#707070" stroke-dasharray="5,2" d="M187.68,-748.69C202.21,-696.62 230.99,-612.9 278,-554 307.11,-517.53 347.62,-486 384.8,-461.72"/>
<polygon fill="#707070" stroke="#707070" points="387.15,-464.37 393.67,-456.02 383.37,-458.48 387.15,-464.37"/>
<text text-anchor="start" x="278" y="-596.3" font-family="Arial" font-size="24.00" fill="#707070">read</text>
</g>
<!-- 7&#45;&gt;8 -->
<g id="18" class="edge">
<title>7&#45;&gt;8</title>
<path fill="none" stroke="#707070" stroke-dasharray="5,2" d="M481,-553.79C481,-527.35 481,-494.27 481,-466.36"/>
<polygon fill="#707070" stroke="#707070" points="484.5,-466.33 481,-456.33 477.5,-466.33 484.5,-466.33"/>
<text text-anchor="start" x="481" y="-498.8" font-family="Arial" font-size="24.00" fill="#707070">write</text>
</g>
<!-- 8&#45;&gt;10 -->
<g id="19" class="edge">
<title>8&#45;&gt;10</title>
<path fill="none" stroke="#707070" stroke-dasharray="5,2" d="M414.26,-358.79C375.4,-331.01 326.29,-295.91 286.09,-267.17"/>
<polygon fill="#707070" stroke="#707070" points="288.08,-264.3 277.91,-261.33 284.01,-269.99 288.08,-264.3"/>
<text text-anchor="start" x="363" y="-303.8" font-family="Arial" font-size="24.00" fill="#707070">read/write</text>
</g>
<!-- 9 -->
<g id="9" class="node">
<title>9</title>
<polygon fill="#dddddd" stroke="#9a9a9a" points="823,-261 461,-261 461,-164 823,-164 823,-261"/>
<text text-anchor="start" x="490" y="-212.8" font-family="Arial" font-size="34.00" fill="#000000">Storage: Permanent</text>
<text text-anchor="start" x="542.5" y="-190.8" font-family="Arial" font-size="19.00" fill="#000000">[Component: RocksDB]</text>
</g>
<!-- 8&#45;&gt;9 -->
<g id="20" class="edge">
<title>8&#45;&gt;9</title>
<path fill="none" stroke="#707070" stroke-dasharray="5,2" d="M520.8,-358.79C543.44,-331.65 571.91,-297.52 595.57,-269.16"/>
<polygon fill="#707070" stroke="#707070" points="598.38,-271.25 602.1,-261.33 593.01,-266.76 598.38,-271.25"/>
<text text-anchor="start" x="571" y="-303.8" font-family="Arial" font-size="24.00" fill="#707070">read/write</text>
</g>
</g>
</svg>
